# xmcd
#
# Track frame offsets: 
#        183
#        16425
#        26163
#        42498
#        56538
#        69138
#        84745
#        95270
#        113853
#        127150
#        143635
#        160090
#        173173
#        191138
#        204118
#        214310
#        229165
#        243988
#        266725
#        283273
#        301938
#        311780
#
# Disc length: 4471 seconds
#
# Revision: 0
# Processed by: cddbd v1.5.1PL2 Copyright (c) Steve Scherf et al.
# Submitted via: ExactAudioCopy v0.95b4
#
DISCID=41117516
DTITLE=Michel Dens - Amour Toujours CD2
DYEAR=1900
DGENRE=Retro
TTITLE0=Rose De Picardie
TTITLE1=Les feuilles sont mortes
TTITLE2=Chant Hindou
TTITLE3=Les roses de Saadi
TTITLE4=Idéale
TTITLE5=Arbres
TTITLE6=Comme la nuit
TTITLE7=Notre-Dame de Paris
TTITLE8=Reine Blonde
TTITLE9=Semailles
TTITLE10=L'Epave
TTITLE11=Envoi de fleurs
TTITLE12=La voix des chênes
TTITLE13=L'Isle des baisers
TTITLE14=La tristesse des lèvres
TTITLE15=Le chant de nos cloches
TTITLE16=La Petite Eglise
TTITLE17=L'Angélus de la mer
TTITLE18=L'Etoile D'Amour
TTITLE19=Stances
TTITLE20=Rose d'amour
TTITLE21=Le credo du paysan
EXTD=
EXTT0=
EXTT1=
EXTT2=
EXTT3=
EXTT4=
EXTT5=
EXTT6=
EXTT7=
EXTT8=
EXTT9=
EXTT10=
EXTT11=
EXTT12=
EXTT13=
EXTT14=
EXTT15=
EXTT16=
EXTT17=
EXTT18=
EXTT19=
EXTT20=
EXTT21=
PLAYORDER=
